<?xml version="1.0" encoding="UTF-8"?>
<svg version="1.1" xmlns="http://www.w3.org/2000/svg" width="512" height="512">
<path d="M0 0 C0.89847656 0.68578125 1.79695313 1.3715625 2.72265625 2.078125 C9.48147392 7.34807475 15.79937048 13.09154674 22 19 C22.60038086 19.57169922 23.20076172 20.14339844 23.81933594 20.73242188 C32.16101891 28.73389166 39.80470738 36.9514924 46.68945312 46.24072266 C48.01797091 48.02412413 49.37360037 49.78409516 50.734375 51.54296875 C58.09366971 61.16866112 64.20769954 71.36859138 70 82 C70.3619043 82.6604834 70.72380859 83.3209668 71.09667969 84.00146484 C83.22618182 106.40912405 91.09904726 130.43568431 96.25 155.3125 C96.40130371 156.03928955 96.55260742 156.7660791 96.70849609 157.51489258 C99.68925063 172.85146409 100.37337541 188.04056116 100.3125 203.625 C100.30976578 205.07933441 100.30976578 205.07933441 100.30697632 206.56304932 C100.26162359 220.89598751 99.83831101 234.90726431 97 249 C96.82307617 249.90717773 96.64615234 250.81435547 96.46386719 251.74902344 C91.28897772 277.7128471 82.51269429 302.65865539 70 326 C69.68595215 326.58942383 69.3719043 327.17884766 69.04833984 327.78613281 C58.11813945 348.1069093 43.98091508 366.42185359 28 383 C27.46584473 383.55606934 26.93168945 384.11213867 26.38134766 384.68505859 C19.31888627 391.99937596 12.08460869 398.80711009 4 405 C3.34322266 405.51143555 2.68644531 406.02287109 2.00976562 406.54980469 C-10.04269569 415.89936398 -22.50739233 423.89057378 -36 431 C-36.88606934 431.47034668 -37.77213867 431.94069336 -38.68505859 432.42529297 C-58.34933471 442.72122789 -79.39766171 450.01449146 -101 455.0625 C-102.22408569 455.35036377 -102.22408569 455.35036377 -103.47290039 455.64404297 C-110.74137683 457.20574225 -117.38649052 457.45617789 -125 458 C-125 399.92 -125 341.84 -125 282 C-102.23 282 -79.46 282 -56 282 C-55.67 279.03 -55.34 276.06 -55 273 C-54.62540541 270.65161252 -54.22626781 268.30698728 -53.80078125 265.96728516 C-53.62740738 265.00693863 -53.62740738 265.00693863 -53.45053101 264.02719116 C-53.0742086 261.94725338 -52.69349643 259.86814874 -52.3125 257.7890625 C-52.04707617 256.32941362 -51.78186167 254.86972665 -51.5168457 253.41000366 C-50.96402444 250.3688429 -50.40908825 247.32807834 -49.85253906 244.28759766 C-49.1394155 240.39108399 -48.43103497 236.49372609 -47.72413635 232.59607887 C-47.1784775 229.58981153 -46.63064742 226.58394313 -46.0821228 223.57819748 C-45.81997931 222.14058693 -45.55843925 220.70286622 -45.29751587 219.26503372 C-44.93357946 217.26174428 -44.56647344 215.25903143 -44.19921875 213.25634766 C-43.88730591 211.54833481 -43.88730591 211.54833481 -43.5690918 209.80581665 C-43 207 -43 207 -42 204 C-69.39 204 -96.78 204 -125 204 C-125.0825 197.235 -125.165 190.47 -125.25 183.5 C-125.28641602 181.40076172 -125.32283203 179.30152344 -125.36035156 177.13867188 C-125.50581268 162.65356853 -124.56392756 148.29082196 -116 136 C-114.9171875 134.4221875 -114.9171875 134.4221875 -113.8125 132.8125 C-104.04018613 123.04018613 -90.26192542 119.04867721 -76.7121582 118.77294922 C-74.90833493 118.77343799 -73.1044864 118.78403842 -71.30078125 118.8046875 C-70.44689819 118.80670166 -69.59301514 118.80871582 -68.71325684 118.81079102 C-65.57961512 118.8211096 -62.44605109 118.84902976 -59.3125 118.875 C-48.7628125 118.936875 -48.7628125 118.936875 -38 119 C-38 95.9 -38 72.8 -38 49 C-43.28 48.34 -48.56 47.68 -54 47 C-55.50820313 46.80277344 -57.01640625 46.60554688 -58.5703125 46.40234375 C-97.50280228 41.31117201 -142.30766801 41.69640606 -175.84765625 64.9765625 C-178.32540479 66.89901963 -180.6731023 68.8981563 -183 71 C-183.75667969 71.66386719 -184.51335937 72.32773438 -185.29296875 73.01171875 C-207.70787215 93.88342742 -215.16271561 127.41289457 -216.33251953 156.84130859 C-216.54110639 164.01892201 -216.61924414 171.19466033 -216.6875 178.375 C-216.8421875 191.059375 -216.8421875 191.059375 -217 204 C-234.49 204 -251.98 204 -270 204 C-270 229.74 -270 255.48 -270 282 C-252.51 282 -235.02 282 -217 282 C-217 338.43 -217 394.86 -217 453 C-257.37145242 442.9071369 -295.51944934 424.81588782 -326 396 C-327.26643911 394.91153298 -328.53720841 393.82808155 -329.8125 392.75 C-339.44635709 384.32525048 -348.14351943 375.09713749 -356 365 C-356.77601563 364.0409375 -357.55203125 363.081875 -358.3515625 362.09375 C-385.7569601 327.64125015 -403.43254452 285.44305938 -410 242 C-410.17732666 240.86957275 -410.35465332 239.73914551 -410.53735352 238.57446289 C-412.1588795 227.18914225 -412.35825404 215.92519002 -412.3125 204.4375 C-412.31034485 203.46411682 -412.3081897 202.49073364 -412.30596924 201.487854 C-412.25496735 187.13391715 -411.87593401 173.10796863 -409 159 C-408.79600586 157.97390625 -408.59201172 156.9478125 -408.38183594 155.890625 C-398.18233347 105.76905247 -375.2582163 61.96476875 -340 25 C-339.44650879 24.41782715 -338.89301758 23.8356543 -338.32275391 23.23583984 C-330.63679969 15.2030188 -322.67523823 7.94897294 -313.75341797 1.31347656 C-312.02690689 0.02015581 -310.32700625 -1.30249467 -308.62890625 -2.6328125 C-271.67660471 -31.16454433 -224.53263493 -48.81142422 -178 -52 C-177.20142578 -52.06026367 -176.40285156 -52.12052734 -175.58007812 -52.18261719 C-112.74381871 -56.76089515 -49.89568946 -38.65093508 0 0 Z " fill="#FEFEFE" transform="translate(412,53)"/>
</svg>
